<svg width="267" height="269" viewBox="0 0 267 269" fill="none" xmlns="http://www.w3.org/2000/svg">
<path fill-rule="evenodd" clip-rule="evenodd" d="M183.046 195.444C163.657 212.002 138.496 222 111 222C49.6964 222 0 172.304 0 111C0 49.6964 49.6964 0 111 0C172.304 0 222 49.6964 222 111C222 137.182 212.935 161.247 197.773 180.227L198 180C197.506 182.215 206.21 188.2 217.572 196.012C240.938 212.078 275.545 235.872 264.5 250.5C263.135 252.308 261.979 254.049 260.883 255.698C257.571 260.685 254.813 264.838 248.5 267.5C226.344 276.842 201.417 229.404 189.516 206.754L189.515 206.753L189.515 206.753C186.314 200.661 184.055 196.362 183.046 195.444ZM210.01 111C210.01 166.228 165.46 211 110.505 211C55.5499 211 11 166.228 11 111C11 55.7715 55.5499 11 110.505 11C165.46 11 210.01 55.7715 210.01 111Z" fill="#00FF9B"/>
</svg>
