<svg id="Layer_1" data-name="Layer 1" xmlns="http://www.w3.org/2000/svg" viewBox="0 0 1710.48 634"><defs><style>.cls-1{fill:#00ff9b;}</style></defs><path class="cls-1" d="M1463.6,465.06"/><path class="cls-1" d="M1463.6,465.06"/><path class="cls-1" d="M911.05,183.71"/><path class="cls-1" d="M947.91,116.69"/><path class="cls-1" d="M-53.47,441.05"/><path class="cls-1" d="M112.3,34.25"/><path class="cls-1" d="M407.9,80.7l-23.63,42.69a219.61,219.61,0,0,0-27.71,107c0,121.73,98.68,220.41,220.41,220.41A220.4,220.4,0,0,0,773.3,330.66Q824.09,235,874.87,139.33c15.74-29.28,61.54-10.82,47.53,23.45-3.74,6.78-5.95,10.77-5.95,10.77a308.69,308.69,0,0,0-39,150.45c0,171.21,138.79,310,310,310,120.41,0,224.78-68.65,276.12-168.94L1710.48,0H63.79L21.23,76.92,18.41,82A146.5,146.5,0,1,0,277,219.76L362.1,59.39C378.63,34.25,418.29,50.8,407.9,80.7Z"/><path class="cls-1" d="M133.22,159.13"/></svg>