<svg width="98" height="83" viewBox="0 0 98 83" fill="none" xmlns="http://www.w3.org/2000/svg">
<g filter="url(#filter0_d)">
<path d="M64.7515 13.8057C66.3011 8.79301 63.4936 3.4733 58.481 1.92376C53.4683 0.374223 48.1486 3.18165 46.599 8.19432L64.7515 13.8057ZM20.2782 8.95906C19.151 3.83486 14.0833 0.594642 8.95906 1.72182C3.83486 2.84901 0.594642 7.91675 1.72182 13.0409L20.2782 8.95906ZM21.6353 69C21.6353 74.2467 25.8886 78.5 31.1353 78.5C36.382 78.5 40.6353 74.2467 40.6353 69H21.6353ZM87.834 19.6878C92.6322 17.5651 94.8011 11.9547 92.6784 7.15656C90.5557 2.35842 84.9453 0.189521 80.1472 2.31219L87.834 19.6878ZM60.0799 36.2174L69.291 33.8923L69.291 33.8923L60.0799 36.2174ZM83.9906 51.3478L93.4793 50.885L83.9906 51.3478ZM59.7743 59.929C54.7645 61.4878 51.967 66.8127 53.5258 71.8225C55.0846 76.8323 60.4095 79.6298 65.4193 78.071L59.7743 59.929ZM55.6753 11C46.599 8.19432 46.5996 8.19243 46.6002 8.19066C46.6003 8.19022 46.6008 8.18856 46.6011 8.18769C46.6016 8.18595 46.602 8.18466 46.6023 8.18383C46.6028 8.18217 46.6028 8.18234 46.6021 8.1843C46.6009 8.18822 46.5974 8.19932 46.5917 8.21736C46.5803 8.25344 46.5599 8.31719 46.5307 8.40672C46.4724 8.5859 46.3791 8.8675 46.252 9.2364C45.9972 9.97568 45.6095 11.0569 45.0981 12.3606C44.0635 14.9979 42.5774 18.4044 40.7281 21.6915C38.8285 25.0681 36.8207 27.8208 34.9041 29.5523C33 31.2725 32.1302 31.1822 32.0371 31.1733L30.2336 50.0875C37.6105 50.7909 43.5432 47.353 47.641 43.651C51.7262 39.9603 54.9197 35.2164 57.2876 31.0073C59.7058 26.7088 61.5534 22.4406 62.7857 19.2995C63.4076 17.7141 63.8867 16.3803 64.2152 15.4268C64.3798 14.9493 64.5073 14.5651 64.5969 14.2901C64.6417 14.1525 64.6771 14.0421 64.7029 13.9607C64.7158 13.92 64.7263 13.8866 64.7344 13.8607C64.7384 13.8477 64.7419 13.8367 64.7448 13.8275C64.7462 13.8229 64.7475 13.8188 64.7486 13.8151C64.7492 13.8133 64.7499 13.811 64.7502 13.8101C64.7509 13.8078 64.7515 13.8057 55.6753 11ZM32.0371 31.1733C31.8274 31.1533 30.8647 30.967 29.2028 29.1085C27.5586 27.2699 25.9467 24.5657 24.4987 21.3833C23.0845 18.2756 22.0132 15.1296 21.2907 12.7173C20.9335 11.5249 20.6711 10.5439 20.5018 9.87812C20.4174 9.54593 20.3566 9.29427 20.3194 9.13627C20.3007 9.05733 20.288 9.00197 20.2811 8.97184C20.2777 8.95678 20.2757 8.94804 20.2753 8.94584C20.275 8.94473 20.2751 8.94527 20.2756 8.94746C20.2759 8.94856 20.2762 8.95007 20.2766 8.952C20.2768 8.95297 20.2772 8.95473 20.2773 8.95521C20.2777 8.95708 20.2782 8.95906 11 11C1.72182 13.0409 1.72231 13.0431 1.72281 13.0454C1.72301 13.0463 1.72355 13.0488 1.72395 13.0506C1.72476 13.0542 1.72566 13.0583 1.72667 13.0629C1.72867 13.0719 1.73108 13.0827 1.73388 13.0952C1.73947 13.1202 1.74666 13.1521 1.75543 13.1906C1.77298 13.2677 1.79691 13.3714 1.82728 13.5001C1.88799 13.7574 1.9746 14.1151 2.08756 14.5595C2.31313 15.4467 2.64581 16.6874 3.08966 18.1692C3.96916 21.1054 5.32371 25.1184 7.20479 29.2524C9.05191 33.3118 11.6046 37.9324 15.0397 41.7738C18.4572 45.5954 23.4887 49.4444 30.2336 50.0875L32.0371 31.1733ZM21.6353 40.6304V69H40.6353V40.6304H21.6353ZM83.9906 11C80.1472 2.31219 80.1451 2.31308 80.143 2.31402C80.1422 2.3144 80.14 2.31538 80.1383 2.31613C80.1349 2.31764 80.1311 2.31933 80.1268 2.32121C80.1184 2.32497 80.1083 2.32948 80.0965 2.33474C80.0729 2.34525 80.0428 2.35876 80.0063 2.37522C79.9334 2.40813 79.8349 2.45288 79.7127 2.50913C79.4685 2.62157 79.1287 2.78033 78.7081 2.98273C77.8681 3.38684 76.6973 3.96889 75.3132 4.70777C72.5742 6.16996 68.8638 8.31859 65.1943 10.9923C61.6139 13.6011 57.5757 17.0643 54.6294 21.2758C51.6613 25.5183 49.1125 31.5848 50.8688 38.5425L69.291 33.8923C69.3852 34.2655 68.9941 33.8877 70.1977 32.1674C71.423 30.416 73.5703 28.3979 76.3831 26.3484C79.1067 24.3639 81.9973 22.6774 84.261 21.4689C85.3783 20.8725 86.3091 20.4104 86.9456 20.1041C87.2632 19.9514 87.5053 19.8384 87.6584 19.7679C87.7349 19.7327 87.7889 19.7082 87.8188 19.6947C87.8338 19.688 87.8427 19.684 87.8453 19.6828C87.8466 19.6822 87.8463 19.6824 87.8444 19.6832C87.8435 19.6836 87.8422 19.6842 87.8405 19.685C87.8396 19.6854 87.838 19.6861 87.8375 19.6863C87.8358 19.687 87.834 19.6878 83.9906 11ZM50.8688 38.5425C52.4623 44.855 56.8876 48.3536 60.9501 50.2009C64.5366 51.8317 68.6587 52.5341 71.0728 52.9935C74.2174 53.5918 75.3972 53.9233 75.9301 54.2081C76.0046 54.2479 75.5634 54.0278 75.1127 53.3779C74.6163 52.662 74.5116 52.0094 74.5019 51.8107L93.4793 50.885C93.3348 47.9232 92.4664 45.0607 90.7262 42.5511C89.0318 40.1075 86.8666 38.5098 84.8857 37.4511C81.3079 35.539 77.0515 34.7902 74.6243 34.3283C71.4666 33.7275 69.8814 33.39 68.8149 32.9051C68.2245 32.6366 69.0515 32.9435 69.291 33.8923L50.8688 38.5425ZM74.5019 51.8107C74.4646 51.0464 74.895 51.1345 73.8654 52.2586C72.8371 53.3811 71.1057 54.6723 68.8187 55.9644C66.6123 57.211 64.3159 58.2212 62.5232 58.9295C61.6409 59.2781 60.9135 59.5406 60.4231 59.7108C60.1786 59.7957 59.9951 59.8569 59.883 59.8936C59.827 59.912 59.7891 59.9242 59.7705 59.9301C59.7612 59.9331 59.7568 59.9345 59.7573 59.9343C59.7576 59.9342 59.7592 59.9337 59.762 59.9328C59.7634 59.9324 59.7652 59.9318 59.7672 59.9312C59.7682 59.9309 59.77 59.9303 59.7705 59.9302C59.7724 59.9296 59.7743 59.929 62.5968 69C65.4193 78.071 65.4214 78.0704 65.4236 78.0697C65.4244 78.0694 65.4267 78.0687 65.4284 78.0682C65.4318 78.0671 65.4355 78.066 65.4396 78.0647C65.4477 78.0622 65.4572 78.0592 65.468 78.0558C65.4897 78.0489 65.5167 78.0404 65.5488 78.0301C65.6132 78.0096 65.6983 77.9821 65.8027 77.9479C66.0115 77.8794 66.2985 77.7835 66.6524 77.6607C67.3587 77.4155 68.3399 77.0606 69.5046 76.6004C71.8057 75.6913 74.9569 74.3192 78.165 72.5067C81.2925 70.7397 84.9425 68.2947 87.8761 65.0921C90.8082 61.891 93.7808 57.0647 93.4793 50.885L74.5019 51.8107Z" fill="url(#paint0_linear)"/>
</g>
<defs>
<filter id="filter0_d" x="0.497986" y="0.497467" width="98.0025" height="83.0051" filterUnits="userSpaceOnUse" color-interpolation-filters="sRGB">
<feFlood flood-opacity="0" result="BackgroundImageFix"/>
<feColorMatrix in="SourceAlpha" type="matrix" values="0 0 0 0 0 0 0 0 0 0 0 0 0 0 0 0 0 0 127 0"/>
<feOffset dx="2" dy="2"/>
<feGaussianBlur stdDeviation="1.5"/>
<feColorMatrix type="matrix" values="0 0 0 0 0 0 0 0 0 0 0 0 0 0 0 0 0 0 0.38 0"/>
<feBlend mode="normal" in2="BackgroundImageFix" result="effect1_dropShadow"/>
<feBlend mode="normal" in="SourceGraphic" in2="effect1_dropShadow" result="shape"/>
</filter>
<linearGradient id="paint0_linear" x1="50" y1="6.5" x2="50" y2="96.5" gradientUnits="userSpaceOnUse">
<stop offset="0.197222" stop-color="#00FF94"/>
<stop offset="0.952778" stop-color="#001AFF" stop-opacity="0"/>
</linearGradient>
</defs>
</svg>
