<?xml version="1.0"?>
<svg xmlns="http://www.w3.org/2000/svg" id="Capa_1" enable-background="new 0 0 512 512" height="512px" viewBox="0 0 512 512" width="512px" class=""><g><g><path d="m476 281.837c-8.284 0-15-6.716-15-15v-31.837c0-113.037-91.963-205-205-205s-205 91.962-205 205v31.837c0 8.284-6.716 15-15 15s-15-6.716-15-15v-31.837c0-62.771 24.444-121.784 68.83-166.169 44.386-44.387 103.399-68.831 166.17-68.831s121.784 24.444 166.17 68.83c44.386 44.385 68.83 103.399 68.83 166.17v31.837c0 8.284-6.716 15-15 15z" fill="#6ba7ff" data-original="#6BA7FF" class="" style="fill:#00FF9B" data-old_color="#6ba7ff"/><path d="m461 235v31.837c0 8.284 6.716 15 15 15s15-6.716 15-15v-31.837c0-62.771-24.444-121.784-68.83-166.169-44.386-44.387-103.399-68.831-166.17-68.831v30c113.037 0 205 91.962 205 205z" fill="#2681ff" data-original="#2681FF" class="" style="fill:#00FF9B" data-old_color="#2681ff"/><path d="m466 400h-30c-8.284 0-15-6.716-15-15v-120c0-8.284 6.716-15 15-15h30c24.813 0 45 20.187 45 45v60c0 24.813-20.187 45-45 45z" fill="#005edf" data-original="#005EDF" class="" style="fill:#00FF9B" data-old_color="#005edf"/><path d="m76 400h-30c-24.813 0-45-20.187-45-45v-60c0-24.813 20.187-45 45-45h30c8.284 0 15 6.716 15 15v120c0 8.284-6.716 15-15 15z" fill="#2681ff" data-original="#2681FF" class="" style="fill:#00FF9B" data-old_color="#2681ff"/><path d="m196 482h-38c-36.944 0-67-30.056-67-67 0-8.284 6.716-15 15-15s15 6.716 15 15c0 20.402 16.599 37 37 37h38c8.284 0 15 6.716 15 15s-6.716 15-15 15z" fill="#6ba7ff" data-original="#6BA7FF" class="" style="fill:#00FF9B" data-old_color="#6ba7ff"/><path d="m328.069 230c-.045 0-.088 0-.132 0-8.284-.071-14.942-6.845-14.87-15.129.054-6.24.108-13.113.162-20.288h-44.907c-5.307 0-10.219-2.804-12.917-7.374s-2.78-10.225-.217-14.872c9.513-17.243 41.086-74.16 47.987-82.628 6.675-8.19 15.814-11.481 24.453-8.808 8.681 2.688 14.838 10.999 15.686 21.17.357 4.284.284 33.808.119 62.512h.244c8.284 0 15 6.716 15 15s-6.716 15-15 15h-.445c-.064 8.412-.124 15.609-.167 20.546-.07 8.24-6.773 14.871-14.996 14.871zm-34.248-65.417h19.605c.071-12.566.123-24.702.142-34.764-5.671 9.791-12.608 22.015-19.747 34.764z" fill="#525263" data-original="#525263" class="" style="fill:#653AFF" data-old_color="#525263"/><path d="m203.554 230.027c-23.187 0-24.969-.594-26.945-1.253-4.915-1.639-8.592-5.367-10.087-10.23-2.526-8.212 1.235-13.139 8.731-22.953 5.969-7.816 17.081-22.365 35.703-48.973 5.15-7.359 8.606-14.146 10.029-19.681l.334-2.616c-.414-7.968-7.027-14.322-15.097-14.322-7.209 0-13.447 5.118-14.832 12.169-1.597 8.129-9.48 13.425-17.609 11.828-8.129-1.596-13.425-9.48-11.828-17.609 4.141-21.084 22.759-36.387 44.27-36.387 24.878 0 45.117 20.239 45.117 45.116-.071 1.522-.46 5.355-.97 7.941-2.2 9.49-7.191 19.84-14.835 30.764-11.136 15.91-19.647 27.605-26.014 36.167 9.731-.032 20.977-.125 31.618-.259.063 0 .129-.001.192-.001 8.197 0 14.892 6.592 14.995 14.812.104 8.284-6.527 15.083-14.811 15.188-16.724.21-28.957.299-37.961.299z" fill="#616173" data-original="#616173" class="active-path" style="fill:#653AFF" data-old_color="#616173"/><path d="m211 512c-24.813 0-45-20.187-45-45s20.187-45 45-45 45 20.187 45 45-20.187 45-45 45z" fill="#ff5c5c" data-original="#FF5C5C" class="" style="fill:#653AFF" data-old_color="#ff5c5c"/><path d="m106 430c-24.813 0-45-20.187-45-45v-120c0-24.813 20.187-45 45-45s45 20.187 45 45v120c0 24.813-20.187 45-45 45z" fill="#ff5c5c" data-original="#FF5C5C" class="" style="fill:#653AFF" data-old_color="#ff5c5c"/><path d="m406 430c-24.813 0-45-20.187-45-45v-120c0-24.813 20.187-45 45-45s45 20.187 45 45v120c0 24.813-20.187 45-45 45z" fill="#ff3838" data-original="#FF3838" class="" data-old_color="#ff3838" style="fill:#653AFF"/></g></g> </svg>
